<svg width="146" height="57" viewBox="0 0 146 57" fill="none" xmlns="http://www.w3.org/2000/svg">
<path d="M6.3 6.02383V12.0238H14.7V16.6238H6.3V23.9238H15V28.5238H1V1.42383H15V6.02383H6.3Z" fill="white"/>
<path d="M43.6 10.9238V20.5238C43.6 21.1238 43.6 21.6238 43.7 22.1238C43.8 22.6238 43.9 23.0238 44.1 23.5238C44.3 23.9238 44.6 24.3238 45 24.5238C45.4 24.8238 45.9 24.9238 46.5 24.9238C47.1 24.9238 47.6 24.8238 48 24.5238C48.4 24.2238 48.7 23.9238 48.9 23.5238C49.1 23.1238 49.2 22.6238 49.3 22.1238C49.4 21.6238 49.4 21.1238 49.4 20.5238V10.9238H54.4V21.3238C54.4 26.5238 51.8 29.1238 46.5 29.1238C41.2 29.1238 38.6 26.5238 38.6 21.3238V10.9238H43.6Z" fill="white"/>
<path d="M62.8 1.32383C63.4 1.92383 63.7 2.62383 63.7 3.42383C63.7 4.22383 63.4 4.92383 62.8 5.52383C62.2 6.12383 61.5 6.42383 60.7 6.42383C59.9 6.42383 59.1999 6.12383 58.5999 5.52383C57.9999 4.92383 57.7 4.32383 57.7 3.42383C57.7 2.62383 57.9999 1.92383 58.5999 1.32383C59.1999 0.723828 59.9 0.423828 60.7 0.423828C61.5 0.523828 62.3 0.823828 62.8 1.32383ZM63.3 28.5238H58.3V10.9238H63.3V28.5238Z" fill="white"/>
<path d="M76 28.5238H70.7V6.02383H65.2V1.42383H81.3999V6.02383H75.8999V28.5238H76Z" fill="white"/>
<path d="M85.5 12.7239C86.6 11.1239 88.1 10.3239 90 10.3239C90.6 10.3239 91.3 10.4239 92.1 10.7239L91.5 15.4239C90.9 15.0239 90.2 14.8239 89.4 14.8239C88.6 14.8239 87.9 15.0239 87.4 15.3239C86.9 15.6239 86.5 16.1239 86.2 16.6239C85.9 17.2239 85.8 17.8239 85.7 18.4239C85.6 19.0239 85.6 19.8239 85.6 20.6239V28.6239H80.6V10.9239H85.6V12.7239H85.5Z" fill="white"/>
<path d="M105.5 11.0239C106.6 11.5239 107.6 12.1239 108.5 13.0239C109.3 13.9239 110 14.9239 110.4 16.0239C110.8 17.2239 111.1 18.4239 111.1 19.8239C111.1 21.2239 110.9 22.4239 110.4 23.6239C110 24.7239 109.3 25.7239 108.5 26.6239C107.7 27.5239 106.7 28.1239 105.5 28.6239C104.3 29.1239 103.1 29.3239 101.7 29.3239C100.3 29.3239 99.1 29.1239 97.9 28.6239C96.8 28.1239 95.8 27.5239 94.9 26.6239C94.1 25.7239 93.4 24.8239 93 23.6239C92.6 22.5239 92.3 21.2239 92.3 19.8239C92.3 18.4239 92.5 17.2239 93 16.0239C93.4 14.8239 94.1 13.8239 94.9 13.0239C95.7 12.1239 96.7 11.5239 97.9 11.0239C99 10.5239 100.3 10.3239 101.7 10.3239C103.1 10.3239 104.3 10.5239 105.5 11.0239ZM98.7 16.3239C97.9 17.3239 97.5 18.5239 97.5 19.8239C97.5 21.1239 97.9 22.2239 98.7 23.2239C99.5 24.2239 100.5 24.7239 101.7 24.7239C102.9 24.7239 103.9 24.2239 104.7 23.2239C105.5 22.2239 105.9 21.1239 105.9 19.8239C105.9 18.5239 105.5 17.4239 104.7 16.3239C103.9 15.3239 102.9 14.8239 101.7 14.8239C100.5 14.7239 99.5 15.3239 98.7 16.3239Z" fill="white"/>
<path d="M118.4 12.5239C119 11.8239 119.6 11.2239 120.4 10.8239C121.2 10.4239 122.1 10.3239 123 10.3239C124.2 10.3239 125.1 10.5239 125.9 10.9239C126.7 11.3239 127.3 11.8239 127.8 12.5239C128.3 13.2239 128.6 14.0239 128.8 14.9239C129 15.8239 129.1 16.8239 129.1 17.9239V28.7239H124.1V19.3239C124.1 18.5239 124.1 17.9239 124 17.3239C124 16.8239 123.8 16.3239 123.7 15.8239C123.6 15.3239 123.3 15.0239 122.9 14.8239C122.5 14.6239 122 14.4239 121.4 14.4239C120.7 14.4239 120.1 14.6239 119.7 14.9239C119.3 15.2239 119 15.7239 118.8 16.2239C118.6 16.7239 118.5 17.3239 118.4 17.9239C118.4 18.5239 118.3 19.1239 118.3 19.8239V28.5239H113.3V10.9239H118.3V12.5239H118.4Z" fill="white"/>
<path d="M1.30005 47.2238H6.10005V43.4238H7.10005V52.7238H6.10005V48.1238H1.30005V52.7238H0.300049V43.4238H1.30005V47.2238Z" fill="white"/>
<path d="M9.80009 44.0238C10.2001 44.0238 10.5001 44.3238 10.5001 44.7238C10.5001 45.1238 10.2001 45.4238 9.80009 45.4238C9.40009 45.4238 9.1001 45.1238 9.1001 44.7238C9.1001 44.3238 9.40009 44.0238 9.80009 44.0238ZM10.3001 46.9238V52.7238H9.30009V46.9238H10.3001Z" fill="white"/>
<path d="M16.7 46.9239H17.7V52.6239C17.7 53.2239 17.7 54.1239 17.1 54.9239C16.7 55.5239 15.8999 56.0238 14.7999 56.0238C13.7999 56.0238 13.1 55.6239 12.7 55.2239C12.3 54.8239 11.8999 54.2239 11.8999 53.3239H12.8999C12.8999 53.8239 13.0999 54.2238 13.2999 54.5238C13.6999 55.0238 14.3 55.1239 14.7 55.1239C15.4 55.1239 15.9 54.8239 16.2 54.3239C16.5 53.8239 16.5 53.3239 16.5 52.8239V52.0238C16.2 52.4238 15.5 53.0238 14.5 53.0238C13.6 53.0238 13 52.7239 12.5 52.2239C12.1 51.8239 11.7 51.1239 11.7 49.9239C11.7 48.8239 12.1 48.1239 12.5 47.6239C13 47.1239 13.7 46.8239 14.5 46.8239C15.4 46.8239 16 47.2239 16.5 47.8239V46.9239H16.7ZM13.5 48.2239C13 48.7239 12.8999 49.3239 12.8999 49.8239C12.8999 50.3239 13 51.0238 13.6 51.5238C13.9 51.8238 14.2999 52.0238 14.7999 52.0238C15.2999 52.0238 15.8 51.8238 16.1 51.5238C16.5 51.1238 16.7999 50.5239 16.7999 49.8239C16.7999 49.1239 16.5 48.5239 16.2 48.2239C15.9 47.9239 15.3999 47.7239 14.8999 47.7239C14.1999 47.7239 13.8 47.9239 13.5 48.2239Z" fill="white"/>
<path d="M19.6001 42.5238H20.6001V47.6238C20.8001 47.4238 21.3001 46.8238 22.3001 46.8238C23.0001 46.8238 23.6001 47.1238 24.0001 47.6238C24.3001 48.0238 24.3001 48.5238 24.3001 49.2238V52.8238H23.3001V49.2238C23.3001 48.9238 23.3001 48.4238 23.0001 48.1238C22.8001 47.8238 22.5001 47.7238 22.0001 47.7238C21.6001 47.7238 21.3001 47.8238 21.0001 48.1238C20.6001 48.6238 20.6001 49.2238 20.6001 49.7238V52.7238H19.6001V42.5238Z" fill="white"/>
<path d="M34.5001 44.4238H30.7001V47.2238H34.4001V48.2238H30.7001V51.8238H34.5001V52.8238H29.7001V43.5238H34.5001V44.4238Z" fill="white"/>
<path d="M36.2001 46.9239H37.2001V47.6239C37.4001 47.4239 37.9001 46.8239 38.9001 46.8239C39.6001 46.8239 40.2001 47.1239 40.6001 47.6239C40.9001 48.0239 40.9001 48.5239 40.9001 49.2239V52.8239H39.9001V49.2239C39.9001 48.9239 39.9001 48.4239 39.6001 48.1239C39.4001 47.8239 39.1001 47.7239 38.6001 47.7239C38.2001 47.7239 37.9001 47.8239 37.6001 48.1239C37.2001 48.6239 37.2001 49.2239 37.2001 49.7239V52.7239H36.2001V46.9239Z" fill="white"/>
<path d="M47.9 51.2238C47.7 51.5238 47.5 51.9238 47.2 52.1238C46.7 52.6238 46 52.8238 45.3 52.8238C43.9 52.8238 42.4 51.9238 42.4 49.8238C42.4 48.1238 43.5 46.7238 45.2 46.7238C46.3 46.7238 47 47.3238 47.4 47.8238C47.8 48.3238 48 49.2238 47.9 50.0238H43.4C43.4 51.2238 44.2 52.0238 45.2 52.0238C45.7 52.0238 46.1 51.9238 46.4 51.6238C46.7 51.4238 46.9 51.1238 47 50.8238L47.9 51.2238ZM46.9 49.2238C46.7 48.3238 46 47.7238 45.2 47.7238C44.4 47.7238 43.6 48.3238 43.5 49.2238H46.9Z" fill="white"/>
<path d="M49.5 46.9238H50.5V47.5238C50.6 47.3238 51 46.7238 51.8 46.7238C52.1 46.7238 52.4 46.8238 52.7 46.9238L52.2 47.8238C52 47.6238 51.8 47.6238 51.6 47.6238C51.2 47.6238 50.9 47.8238 50.8 48.0238C50.6 48.2238 50.5 48.6238 50.5 49.6238V52.7238H49.5V46.9238Z" fill="white"/>
<path d="M57.8 46.9239H58.8V52.6239C58.8 53.2239 58.8 54.1239 58.2 54.9239C57.8 55.5239 57 56.0238 55.9 56.0238C54.9 56.0238 54.2 55.6239 53.8 55.2239C53.4 54.8239 53 54.2239 53 53.3239H54C54 53.8239 54.2 54.2238 54.4 54.5238C54.8 55.0238 55.4 55.1239 55.8 55.1239C56.5 55.1239 57 54.8239 57.3 54.3239C57.6 53.8239 57.6 53.3239 57.6 52.8239V52.0238C57.3 52.4238 56.6 53.0238 55.6 53.0238C54.7 53.0238 54.1 52.7239 53.6 52.2239C53.2 51.8239 52.8 51.1239 52.8 49.9239C52.8 48.8239 53.2 48.1239 53.6 47.6239C54.1 47.1239 54.8 46.8239 55.6 46.8239C56.5 46.8239 57.1 47.2239 57.6 47.8239V46.9239H57.8ZM54.6 48.2239C54.1 48.7239 54 49.3239 54 49.8239C54 50.3239 54.1 51.0238 54.7 51.5238C55 51.8238 55.4 52.0238 55.9 52.0238C56.4 52.0238 56.9 51.8238 57.2 51.5238C57.6 51.1238 57.9 50.5239 57.9 49.8239C57.9 49.1239 57.6 48.5239 57.3 48.2239C57 47.9239 56.5 47.7239 56 47.7239C55.3 47.7239 54.9 47.9239 54.6 48.2239Z" fill="white"/>
<path d="M62.5 52.2238L59.8 46.9238H60.9L63 51.1238L64.9 46.9238H66L61.7 55.9238H60.7L62.5 52.2238Z" fill="white"/>
<path d="M77.8001 45.4238C77.5001 45.1238 77.1001 44.8238 76.6001 44.5238C76.1001 44.3238 75.5001 44.1238 75.0001 44.1238C72.8001 44.1238 71.2001 45.8238 71.2001 48.0238C71.2001 50.5238 73.3001 51.8238 75.0001 51.8238C75.6001 51.8238 76.2001 51.6238 76.7001 51.4238C77.2001 51.1238 77.6001 50.8238 77.8001 50.6238V51.9238C76.8001 52.6238 75.7001 52.8238 75.0001 52.8238C72.2001 52.8238 70.2001 50.7238 70.2001 48.0238C70.2001 45.2238 72.3001 43.1238 75.1001 43.1238C75.7001 43.1238 76.7001 43.2238 77.9001 44.0238V45.4238H77.8001Z" fill="white"/>
<path d="M84.6001 51.2238C84.4001 51.5238 84.2001 51.9238 83.9001 52.1238C83.4001 52.6238 82.7001 52.8238 82.0001 52.8238C80.6001 52.8238 79.1001 51.9238 79.1001 49.8238C79.1001 48.1238 80.2001 46.7238 81.9001 46.7238C83.0001 46.7238 83.7001 47.3238 84.1001 47.8238C84.5001 48.3238 84.7001 49.2238 84.6001 50.0238H80.1001C80.1001 51.2238 80.9001 52.0238 81.9001 52.0238C82.4001 52.0238 82.8001 51.9238 83.1001 51.6238C83.4001 51.4238 83.6001 51.1238 83.7001 50.8238L84.6001 51.2238ZM83.6001 49.2238C83.4001 48.3238 82.7001 47.7238 81.9001 47.7238C81.1001 47.7238 80.3001 48.3238 80.2001 49.2238H83.6001Z" fill="white"/>
<path d="M87.2001 42.5238V52.7238H86.2001V42.5238H87.2001Z" fill="white"/>
<path d="M90.1001 42.5238V52.7238H89.1001V42.5238H90.1001Z" fill="white"/>
<path d="M97.8 44.4238V52.8238H96.8V44.4238H94.5V43.4238H100.1V44.4238H97.8Z" fill="white"/>
<path d="M100.2 46.9238H101.2V47.5238C101.3 47.3238 101.7 46.7238 102.5 46.7238C102.8 46.7238 103.1 46.8238 103.4 46.9238L102.9 47.8238C102.7 47.6238 102.5 47.6238 102.3 47.6238C101.9 47.6238 101.6 47.8238 101.5 48.0238C101.3 48.2238 101.2 48.6238 101.2 49.6238V52.7238H100.2V46.9238Z" fill="white"/>
<path d="M109.2 51.2238C109 51.5238 108.8 51.9238 108.5 52.1238C108 52.6238 107.3 52.8238 106.6 52.8238C105.2 52.8238 103.7 51.9238 103.7 49.8238C103.7 48.1238 104.8 46.7238 106.5 46.7238C107.6 46.7238 108.3 47.3238 108.7 47.8238C109.1 48.3238 109.3 49.2238 109.2 50.0238H104.7C104.7 51.2238 105.5 52.0238 106.5 52.0238C107 52.0238 107.4 51.9238 107.7 51.6238C108 51.4238 108.2 51.1238 108.3 50.8238L109.2 51.2238ZM108.2 49.2238C108 48.3238 107.3 47.7238 106.5 47.7238C105.7 47.7238 104.9 48.3238 104.8 49.2238H108.2Z" fill="white"/>
<path d="M115.2 46.9239H116.2V52.7239H115.2V51.9239C114.9 52.3239 114.2 52.9239 113.2 52.9239C111.7 52.9239 110.4 51.9239 110.4 49.8239C110.4 47.8239 111.7 46.8239 113.2 46.8239C114.3 46.8239 114.9 47.4239 115.2 47.8239V46.9239ZM111.4 49.8239C111.4 51.0239 112.1 52.0238 113.3 52.0238C114.5 52.0238 115.2 51.0239 115.2 49.8239C115.2 48.3239 114.2 47.6239 113.3 47.6239C112.3 47.7239 111.4 48.4239 111.4 49.8239Z" fill="white"/>
<path d="M119.1 47.8239V52.7239H118.1V47.8239H117.5V46.9239H118.1V44.8239H119.1V46.9239H120.1V47.8239H119.1Z" fill="white"/>
<path d="M121.1 46.9238H122.1V47.5238C122.4 47.0238 122.9 46.7238 123.5 46.7238C124.6 46.7238 125 47.4238 125.1 47.6238C125.7 46.7238 126.5 46.7238 126.9 46.7238C128.6 46.7238 128.8 48.1238 128.8 49.0238V52.7238H127.8V49.2238C127.8 48.5238 127.7 47.7238 126.8 47.7238C125.6 47.7238 125.5 48.8238 125.5 49.5238V52.7238H124.5V49.3238C124.5 48.9238 124.5 47.7238 123.5 47.7238C122.4 47.7238 122.2 48.9238 122.2 49.6238V52.8238H121.2V46.9238H121.1Z" fill="white"/>
<path d="M135.8 51.2238C135.6 51.5238 135.4 51.9238 135.1 52.1238C134.6 52.6238 133.9 52.8238 133.2 52.8238C131.8 52.8238 130.3 51.9238 130.3 49.8238C130.3 48.1238 131.4 46.7238 133.1 46.7238C134.2 46.7238 134.9 47.3238 135.3 47.8238C135.7 48.3238 135.9 49.2238 135.8 50.0238H131.3C131.3 51.2238 132.1 52.0238 133.1 52.0238C133.6 52.0238 134 51.9238 134.3 51.6238C134.6 51.4238 134.8 51.1238 134.9 50.8238L135.8 51.2238ZM134.8 49.2238C134.6 48.3238 133.9 47.7238 133.1 47.7238C132.3 47.7238 131.5 48.3238 131.4 49.2238H134.8Z" fill="white"/>
<path d="M137.4 46.9239H138.4V47.6239C138.6 47.4239 139.1 46.8239 140.1 46.8239C140.8 46.8239 141.4 47.1239 141.8 47.6239C142.1 48.0239 142.1 48.5239 142.1 49.2239V52.8239H141.1V49.2239C141.1 48.9239 141.1 48.4239 140.8 48.1239C140.6 47.8239 140.3 47.7239 139.8 47.7239C139.5 47.7239 139.1 47.8239 138.8 48.1239C138.4 48.6239 138.4 49.2239 138.4 49.7239V52.7239H137.4V46.9239Z" fill="white"/>
<path d="M145 47.8239V52.7239H144V47.8239H143.4V46.9239H144V44.8239H145V46.9239H146V47.8239H145Z" fill="white"/>
<path d="M136.7 27.4239C136.7 26.6239 136.8 25.9239 137.3 25.4239C137.8 24.8239 138.5 24.7239 139 24.7239C140.1 24.7239 141.2 25.4239 141.2 27.2239V28.0239H144.7V28.9239H136.7V27.4239ZM140.4 28.0239V27.3239C140.4 26.2239 139.9 25.6239 138.9 25.6239C137.6 25.6239 137.5 26.8239 137.5 27.4239V28.1239H140.4V28.0239Z" fill="white"/>
<path d="M136.7 22.1239C136.7 21.6239 136.7 20.8239 137.1 20.2239C137.4 19.7239 138 19.3239 138.9 19.3239C140.1 19.3239 141 20.1239 141.1 21.3239L144.7 18.8239V19.9239L141.2 22.3239V22.5239H144.7V23.4239H136.7V22.1239ZM140.4 22.5239V21.9239C140.4 20.8239 139.9 20.1239 138.9 20.1239C138.5 20.1239 138 20.2239 137.7 20.7239C137.5 21.1239 137.5 21.5239 137.5 21.9239V22.4239H140.4V22.5239Z" fill="white"/>
<path d="M140.7 17.8238C138.3 17.8238 136.6 15.9238 136.6 13.6238C136.6 11.3238 138.4 9.42383 140.7 9.42383C143.1 9.42383 144.8 11.2238 144.8 13.6238C144.8 16.0238 143.1 17.8238 140.7 17.8238ZM140.7 16.9238C142.5 16.9238 144 15.4238 144 13.6238C144 11.8238 142.5 10.3238 140.7 10.3238C138.9 10.3238 137.4 11.8238 137.4 13.6238C137.4 15.4238 138.9 16.9238 140.7 16.9238Z" fill="white"/>
</svg>
